<svg width="52" height="56" viewBox="0 0 52 56" fill="none" xmlns="http://www.w3.org/2000/svg">
<path d="M25.9797 4.17267C13.4215 4.1672 3.25 15.1156 3.25 28.6289C3.25 39.3149 9.61289 48.3985 18.4742 51.7344C19.6676 52.057 19.4848 51.1438 19.4848 50.5203V46.282C12.5938 47.1516 12.3145 42.2406 11.8523 41.4203C10.918 39.7031 8.70898 39.2656 9.36914 38.4453C10.9383 37.5758 12.5379 38.6641 14.3914 41.6117C15.732 43.75 18.3473 43.3891 19.6727 43.0336C19.9621 41.7485 20.5816 40.6 21.4348 39.7086C14.2949 38.3305 11.3191 33.6383 11.3191 28.0602C11.3191 25.3531 12.1469 22.8649 13.7719 20.8578C12.7359 17.5492 13.8684 14.7164 14.0207 14.2953C16.9711 14.011 20.0383 16.5703 20.277 16.7727C21.9527 16.286 23.8672 16.0289 26.0102 16.0289C28.1633 16.0289 30.0828 16.2969 31.7738 16.7891C32.3477 16.3188 35.1914 14.1203 37.9336 14.3883C38.0809 14.8094 39.1879 17.5766 38.2129 20.8414C39.8582 22.8539 40.6961 25.3641 40.6961 28.0766C40.6961 33.6656 37.7 38.3633 30.5398 39.7195C31.1531 40.3691 31.6401 41.1437 31.9723 41.9981C32.3045 42.8526 32.4752 43.7698 32.4746 44.6961V50.8484C32.5152 51.3406 32.4746 51.8274 33.2363 51.8274C42.2297 48.5625 48.7043 39.4133 48.7043 28.6344C48.7043 15.1156 38.5277 4.17267 25.9797 4.17267Z" fill="#B3B3B3"/>
</svg>
