<svg  viewBox="0 0 61 53" xmlns="http://www.w3.org/2000/svg">
<path d="M33.1129 4.41669C35.9722 4.42331 37.4235 4.43656 38.6766 4.46748L39.1696 4.48294C39.739 4.5006 40.3007 4.52269 40.9793 4.54919C43.6836 4.6596 45.5289 5.0306 47.1479 5.57606C48.8254 6.13698 50.2386 6.89665 51.6518 8.12227C52.9447 9.22585 53.9448 10.5613 54.5823 12.0354C55.2101 13.4421 55.6371 15.0454 55.7642 17.3973C55.7947 17.9847 55.8201 18.4727 55.8404 18.9696L55.8557 19.398C55.8938 20.4845 55.9091 21.7455 55.9141 24.2299L55.9167 25.8773V28.7702C55.9229 30.381 55.9034 31.9917 55.8582 33.602L55.843 34.0304C55.8226 34.5273 55.7972 35.0154 55.7667 35.6028C55.6396 37.9546 55.2076 39.5557 54.5823 40.9646C53.9448 42.4387 52.9447 43.7742 51.6518 44.8778C50.3816 46.0011 48.8446 46.8701 47.1479 47.424C45.5289 47.9694 43.6836 48.3404 40.9793 48.4509L39.1696 48.5171L38.6766 48.5304C37.4235 48.5613 35.9722 48.5767 33.1129 48.5811L31.2168 48.5834H27.8897C26.035 48.589 24.1802 48.5721 22.326 48.5326L21.8329 48.5193C21.2296 48.4995 20.6263 48.4766 20.0233 48.4509C17.3189 48.3404 15.4737 47.9694 13.8521 47.424C12.1564 46.8698 10.6202 46.0009 9.35081 44.8778C8.05697 43.7744 7.05596 42.4389 6.41773 40.9646C5.78994 39.5579 5.36294 37.9546 5.23585 35.6028L5.1596 34.0304L5.1469 33.602C5.10004 31.9917 5.07886 30.381 5.08335 28.7702V24.2299C5.07632 22.6191 5.09496 21.0083 5.13927 19.398L5.15706 18.9696C5.1774 18.4727 5.20281 17.9847 5.23331 17.3973C5.3604 15.0454 5.7874 13.4444 6.41519 12.0354C7.05491 10.5607 8.05767 9.22519 9.35336 8.12227C10.622 6.99944 12.1573 6.13052 13.8521 5.57606C15.4737 5.0306 17.3164 4.6596 20.0233 4.54919C20.6994 4.52269 21.2636 4.5006 21.8329 4.48294L22.326 4.46969C24.1794 4.43045 26.0333 4.41352 27.8872 4.4189L33.1129 4.41669ZM30.5 15.4584C27.1296 15.4584 23.8971 16.6217 21.5139 18.6924C19.1306 20.7631 17.7917 23.5716 17.7917 26.5C17.7917 29.4285 19.1306 32.2369 21.5139 34.3077C23.8971 36.3784 27.1296 37.5417 30.5 37.5417C33.8705 37.5417 37.1029 36.3784 39.4862 34.3077C41.8694 32.2369 43.2084 29.4285 43.2084 26.5C43.2084 23.5716 41.8694 20.7631 39.4862 18.6924C37.1029 16.6217 33.8705 15.4584 30.5 15.4584ZM30.5 19.875C31.5014 19.8749 32.4929 20.0461 33.4181 20.3789C34.3433 20.7117 35.1839 21.1996 35.8921 21.8147C36.6002 22.4297 37.162 23.16 37.5454 23.9637C37.9287 24.7674 38.1261 25.6289 38.1263 26.4989C38.1265 27.3689 37.9294 28.2304 37.5464 29.0343C37.1633 29.8381 36.6018 30.5685 35.8939 31.1838C35.186 31.7991 34.3455 32.2872 33.4204 32.6203C32.4954 32.9534 31.5039 33.1249 30.5026 33.125C28.4803 33.125 26.5408 32.427 25.1109 31.1846C23.6809 29.9422 22.8776 28.2571 22.8776 26.5C22.8776 24.743 23.6809 23.0579 25.1109 21.8154C26.5408 20.573 28.4803 19.875 30.5026 19.875M43.8463 12.1459C43.0037 12.1459 42.1956 12.4367 41.5998 12.9544C41.004 13.472 40.6692 14.1742 40.6692 14.9063C40.6692 15.6384 41.004 16.3405 41.5998 16.8582C42.1956 17.3759 43.0037 17.6667 43.8463 17.6667C44.6889 17.6667 45.497 17.3759 46.0929 16.8582C46.6887 16.3405 47.0234 15.6384 47.0234 14.9063C47.0234 14.1742 46.6887 13.472 46.0929 12.9544C45.497 12.4367 44.6889 12.1459 43.8463 12.1459Z" fill="#B3B3B3"/>
</svg>
