<svg width="56" height="50" viewBox="0 0 56 50" fill="none" xmlns="http://www.w3.org/2000/svg">
<path d="M52.4067 12.5C50.61 13.2291 48.6733 13.7083 46.6667 13.9375C48.72 12.8333 50.3067 11.0833 51.0533 8.97915C49.1167 10.0208 46.97 10.75 44.7067 11.1666C42.8633 9.37498 40.2733 8.33331 37.3333 8.33331C31.85 8.33331 27.37 12.3333 27.37 17.2708C27.37 17.9791 27.4633 18.6666 27.6267 19.3125C19.32 18.9375 11.9233 15.375 6.99999 9.97915C6.13666 11.2916 5.64666 12.8333 5.64666 14.4583C5.64666 17.5625 7.39666 20.3125 10.1033 21.875C8.44666 21.875 6.90666 21.4583 5.55332 20.8333V20.8958C5.55332 25.2291 9.00666 28.8541 13.58 29.6666C12.1119 30.0269 10.5701 30.0769 9.07666 29.8125C9.7104 31.5885 10.9516 33.1425 12.6257 34.2561C14.2998 35.3697 16.3227 35.9868 18.41 36.0208C14.8719 38.5219 10.486 39.8737 5.97332 39.8541C5.17999 39.8541 4.38666 39.8125 3.59332 39.7291C8.02666 42.2708 13.3 43.75 18.9467 43.75C37.3333 43.75 47.4367 30.125 47.4367 18.3125C47.4367 17.9166 47.4367 17.5416 47.4133 17.1458C49.3733 15.8958 51.0533 14.3125 52.4067 12.5Z" fill="currentColor"/>
</svg>
